# xmcd
#
# Track frame offsets: 
#        150
#        15530
#        29962
#        47091
#        64879
#        79665
#        92308
#        104326
#        118773
#        134479
#        151564
#        165215
#        178525
#        195577
#        212477
#        225010
#        242459
#        259514
#        276808
#        292003
#
# Disc length: 4072 seconds
#
# Revision: 0
# Processed by: cddbd v1.5.2PL0 Copyright (c) Steve Scherf et al.
# Submitted via: ExactAudioCopy v1.1
#
DISCID=fd0fe614
DTITLE=Various Artist - MNM Party 2015 Volume 1 - CD 2 - Hottest Party Classi
DTITLE=cs
DYEAR=2015
DGENRE=Dance
TTITLE0=Stromae - Alors On Danse
TTITLE1=Duck Sauce - Barbra Streisand
TTITLE2=Masters At Work - Work (DJ's Of The Planet Remix)
TTITLE3=Virtual Zone - Virtual Zone
TTITLE4=Peter Luts - The Rain
TTITLE5=Natural Born Grooves - Candy On The Dancefloor
TTITLE6=Mason Vs. Princess Superstar - Perfect Exceeder
TTITLE7=Bomfunk MCs - B-Boys and Flygirls
TTITLE8=Dennis Ferrer - Hey Hey
TTITLE9=Moloko - Forever More
TTITLE10=Fake Blood - I Think I Like It
TTITLE11=DJ S.P.U.D. - Set It Off
TTITLE12=The Mackenzie Feat. Jessy - All I Need
TTITLE13=Sophie Ellis - Bextor - Murder On The Dancefloor
TTITLE14=Bob Marley Vs. Funkstar De Luxe - Sun Is Shining
TTITLE15=Artful Dodger and Romina Johnson - Movin Too Fast
TTITLE16=David Morales Pres. The Face - Needin' U
TTITLE17=DB Boulevard - Point Of View
TTITLE18=Jean Claude Ades and Vincent Thomas - Shingaling
TTITLE19=Party Harders Vs. The Subs - The Pope Of Dope
EXTD=
EXTT0=
EXTT1=
EXTT2=
EXTT3=
EXTT4=
EXTT5=
EXTT6=
EXTT7=
EXTT8=
EXTT9=
EXTT10=
EXTT11=
EXTT12=
EXTT13=
EXTT14=
EXTT15=
EXTT16=
EXTT17=
EXTT18=
EXTT19=
PLAYORDER=
